<svg width="312" height="101" viewBox="0 0 312 101" fill="none" xmlns="http://www.w3.org/2000/svg">
<g clip-path="url(#clip0_3_12)">
<path d="M2.43749 40.742C1.09166 46.3447 -5.81692 79.1739 12.0228 97.9398C13.5331 99.5299 15.3799 100.422 17.279 100.422L49.4517 100.34C49.9078 100.34 50.0424 99.4774 49.6237 99.2224C41.2795 94.1446 7.94042 72.0785 2.78142 40.772C2.74404 40.5245 2.4973 40.502 2.43749 40.7495V40.742Z" fill="#040606"/>
<path d="M27.5596 61.908C30.0569 60.4605 36.6514 57.4603 50.4162 55.7052C55.65 55.0377 60.9062 56.2678 65.6839 59.2829C76.0393 65.8157 95.4117 80.959 107.502 99.9724C107.778 100.407 107.502 101.082 107.09 100.985C99.9576 99.2599 62.7231 89.3819 27.4998 63.6181C26.9914 63.2431 27.0213 62.2156 27.5521 61.908H27.5596Z" fill="#040606"/>
<path d="M96.0996 31.7791L95.464 23.9712C95.4267 23.4986 95.0453 23.2661 94.7687 23.5511C80.1515 38.2369 35.343 48.7224 26.5278 50.6725C25.5484 50.89 24.5465 50.665 23.6642 50.0275L2.53472 34.8767C1.91415 34.4342 2.13097 33.1366 2.82632 33.1216C16.1126 32.8216 74.8953 30.5415 90.6714 13.7032C90.9181 13.4406 90.8808 12.9081 90.6116 12.6906L84.6974 7.85287C84.1591 7.41035 84.3535 6.27029 84.9816 6.21779L107.928 4.17019C108.436 4.12519 108.773 4.88272 108.519 5.49025L97.266 32.1241C96.9594 32.8591 96.1519 32.6191 96.0846 31.7791H96.0996Z" fill="#040606"/>
<path d="M156.677 43.4422H151.278C140.721 43.4422 134.127 49.0975 134.127 60.648V89.5245H119.495V30.204H133.289L134.127 38.8669C136.646 32.9717 142.284 28.9965 150.202 28.9965C152.243 28.9965 154.284 29.2365 156.677 29.8365V43.4347V43.4422Z" fill="#040606"/>
<path d="M155.114 59.8079C155.114 41.1545 167.234 28.2839 184.625 28.2839C202.016 28.2839 213.657 40.1945 213.657 58.7279V63.1831L169.036 63.3031C170.112 73.7736 175.63 79.0689 185.35 79.0689C193.388 79.0689 198.666 75.9412 200.341 70.286H213.897C211.377 83.2841 200.581 91.107 185.111 91.107C167.481 91.107 155.121 78.2288 155.121 59.8229L155.114 59.8079ZM169.387 53.9126H199.137C199.137 45.7297 193.5 40.3145 184.745 40.3145C175.989 40.3145 170.83 45.0097 169.387 53.9126Z" fill="#040606"/>
<path d="M219.639 89.5244V0H234.151V89.5244H219.639Z" fill="#040606"/>
<path d="M241.83 9.26298C241.83 4.32773 245.785 0.480042 250.825 0.480042C255.864 0.480042 259.58 4.32773 259.58 9.26298C259.58 14.1982 255.625 18.1659 250.825 18.1659C245.785 18.1659 241.83 14.1982 241.83 9.26298ZM243.505 30.084H258.137V89.532H243.505V30.084Z" fill="#040606"/>
<path d="M264.133 89.5244V77.4938L293.644 42.3546H264.133V30.0765H312V42.2346L282.01 77.2538H312V89.5244H264.133Z" fill="#040606"/>
</g>
<defs>
<clipPath id="clip0_3_12">
<rect width="312" height="101" fill="white"/>
</clipPath>
</defs>
</svg>
